<svg width="38" height="49" viewBox="0 0 38 49" fill="none" xmlns="http://www.w3.org/2000/svg">
  <path d="M6.51428 11.6781C6.51428 10.7445 6.51428 10.2777 6.58627 9.88865C6.91281 8.12357 8.2986 6.7425 10.0697 6.41706C10.4601 6.34533 10.9285 6.34532 11.8653 6.34532L19.1551 6.34532C20.0919 6.34532 20.5603 6.34533 20.9507 6.41706C22.7218 6.74249 24.1076 8.12357 24.4341 9.88865C24.5061 10.2777 24.5061 10.7445 24.5061 11.6781C24.5061 12.6117 24.5061 12.4602 24.4341 12.8493C24.1076 14.6144 22.7218 15.9955 20.9507 16.3209C20.5603 16.3926 20.0919 16.3926 19.1551 16.3926L11.8653 16.3926C10.9285 16.3926 10.4601 16.3926 10.0697 16.3209C8.2986 15.9955 6.91281 14.6144 6.58627 12.8493C6.51428 12.4602 6.51428 12.6117 6.51428 11.6781Z" fill="#73B6FA"/>
  <path d="M3.25714 30.0647L-8.2769e-07 30.0647L-3.37888e-07 18.9353L3.25714 18.9353L3.25714 30.0647ZM19 45.7539C23.0349 45.7539 25.799 45.7494 27.9105 45.521C29.9608 45.2992 31.0054 44.8982 31.7447 44.3616C32.3585 43.9161 32.8987 43.3777 33.3457 42.766C33.8842 42.0292 34.2866 40.9882 34.5091 38.9448C34.7383 36.8405 34.7429 34.0858 34.7429 30.0647L34.7429 18.9353C34.7429 14.9141 34.7383 12.1595 34.5091 10.0552C34.2866 8.01181 33.8842 6.97082 33.3457 6.23399C32.8987 5.6223 32.3585 5.08393 31.7447 4.63843C31.0054 4.10179 29.9608 3.70075 27.9105 3.47897C25.799 3.25058 23.0349 3.24606 19 3.24606C14.9651 3.24606 12.201 3.25058 10.0895 3.47898C8.03917 3.70076 6.99463 4.10179 6.25528 4.63843C5.6415 5.08393 5.1013 5.6223 4.65427 6.23399C4.1158 6.97082 3.7134 8.01181 3.49086 10.0552C3.26168 12.1595 3.25714 14.9141 3.25714 18.9353L-3.37888e-07 18.9353L0.000454126 17.5001C0.00785785 10.5488 0.126372 6.91615 2.02148 4.32294C2.62779 3.49329 3.35255 2.75691 4.17246 2.13702L4.33771 2.0146C6.93977 0.125944 10.5849 0.00782991 17.5599 0.000451954L19 -1.16344e-07C26.8007 2.22312e-07 30.7619 -2.54216e-06 33.5313 1.92161L33.6623 2.0146C34.4948 2.61885 35.2337 3.34114 35.8557 4.15825L35.9785 4.32294C37.8736 6.91615 37.9921 10.5488 37.9996 17.5001L38 30.0647C38 37.9622 38 41.911 35.9785 44.6771C35.3318 45.562 34.5503 46.3409 33.6623 46.9854C30.8868 49 26.9245 49 19 49L17.5599 48.9995C10.5849 48.9922 6.93977 48.8741 4.33771 46.9854L4.17246 46.863C3.35255 46.2431 2.62779 45.5067 2.02148 44.6771L1.92817 44.5465C0.122429 41.9618 0.00773319 38.3353 0.00045351 31.4999L-8.2769e-07 30.0647L3.25714 30.0647C3.25714 34.0858 3.26168 36.8405 3.49086 38.9448C3.71339 40.9882 4.1158 42.0292 4.65427 42.766C5.10129 43.3777 5.64149 43.9161 6.25528 44.3616C6.99463 44.8982 8.03917 45.2992 10.0895 45.521C12.201 45.7494 14.9651 45.7539 19 45.7539Z" fill="#181140"/>
  <path d="M6.04898 29.8618C6.04898 25.0526 6.04906 22.6479 7.5482 21.1539C9.04733 19.6598 11.4601 19.6599 16.2857 19.6599L21.8341 19.6599C26.6597 19.6599 29.0725 19.6599 30.5716 21.1539C32.0708 22.6479 32.0708 25.0526 32.0708 29.8618L32.0708 32.0086C32.0708 36.8178 32.0707 39.2224 30.5716 40.7164C29.0725 42.2104 26.6597 42.2105 21.8341 42.2105L16.2857 42.2105C11.4601 42.2105 9.04733 42.2104 7.5482 40.7164C6.04906 39.2224 6.04898 36.8177 6.04898 32.0085L6.04898 29.8618Z" fill="#AEEF3E"/>
</svg>
